<svg width="65" height="51" viewBox="0 0 65 51" fill="none" xmlns="http://www.w3.org/2000/svg">
<path d="M60.6936 50.3353C61.299 50.4705 61.8994 50.0893 62.0346 49.4839L64.2376 39.6182C64.3728 39.0128 63.9916 38.4124 63.3862 38.2772C62.7808 38.142 62.1804 38.5232 62.0452 39.1286L60.087 47.8982L51.3175 45.9399C50.7121 45.8047 50.1117 46.1859 49.9765 46.7913C49.8413 47.3967 50.2225 47.9971 50.8279 48.1323L60.6936 50.3353ZM0.692233 3.17757C19.1848 5.76449 28.2964 8.68168 35.6139 15.168C39.2979 18.4336 42.5715 22.6442 46.3471 28.2947C50.1317 33.9587 54.3529 40.9624 59.9902 49.8412L61.8866 48.6371C56.2921 39.8257 52.0159 32.7352 48.2149 27.0467C44.405 21.3448 41.0047 16.9447 37.104 13.487C29.252 6.52689 19.5501 3.54734 1.00345 0.952859L0.692233 3.17757Z" fill="white"/>
</svg>
