<svg width="80" height="82" viewBox="0 0 80 82" fill="none" xmlns="http://www.w3.org/2000/svg">
<g filter="url(#filter0_dii_102_173)">
<path d="M29.6053 29.5616C28.3631 20.9186 34.3626 12.905 43.0057 11.6628C51.6488 10.4205 59.6624 16.4201 60.9046 25.0632L62.0749 33.2062C63.3171 41.8493 57.3176 49.8629 48.6745 51.1051C40.0314 52.3473 32.0178 46.3477 30.7756 37.7046L29.6053 29.5616Z" fill="url(#paint0_linear_102_173)"/>
<path d="M52.5278 9.16697C59.2968 8.3292 60.9442 11.922 61.406 16.5913L61.8191 18.612C62.0367 19.6767 62.1772 20.7523 62.2407 21.8307C62.3501 23.6871 60.3994 23.7064 60.0627 21.8775V21.8775C56.3144 21.8272 52.6436 20.8032 49.4105 18.9061L48.6019 18.4316L52.5278 9.16697Z" fill="url(#paint1_linear_102_173)"/>
<path d="M16.4352 43.0587C15.6425 37.5435 19.4709 32.43 24.9861 31.6373L26.9898 45.5787C27.7824 51.0938 23.9541 56.2074 18.4389 57L16.4352 43.0587Z" fill="url(#paint2_linear_102_173)"/>
<path d="M24.5302 28.6176C23.3349 20.2778 29.5011 12.4886 38.3028 11.22L52.9115 9.11441L50.2322 16.1511C49.7597 17.392 49.0936 18.561 48.2564 19.6184C44.3835 23.1723 40.4509 25.8889 35.5479 27.728L31.0349 30.0522C30.7979 30.1743 30.6643 30.4337 30.7022 30.6982L31.9462 39.3784L32.1166 39.8422L32.1471 39.892L50.4398 37.2554L50.4397 37.2628L62.4053 35.5382L63.237 41.3412C63.8501 45.6191 60.8889 49.5855 56.6231 50.2003L42.4067 52.2493C42.1224 52.2903 41.8396 52.3154 41.559 52.3252L40.8623 52.4256C36.5965 53.0404 32.6413 50.0709 32.0282 45.793L31.8813 44.7678C30.8218 44.081 29.8087 43.3222 28.8493 42.4963L26.4137 40.3994C26.2703 40.2759 26.1765 40.1045 26.1496 39.9169L24.5302 28.6176Z" fill="url(#paint3_linear_102_173)"/>
<path d="M23.6548 32.4174C23.5394 32.0446 23.7481 31.6489 24.1209 31.5335C24.4937 31.4181 24.8895 31.6267 25.0049 31.9995L27.5351 40.1742C27.6505 40.547 27.4418 40.9428 27.069 41.0582C26.6962 41.1736 26.3005 40.9649 26.1851 40.5921L23.6548 32.4174Z" fill="url(#paint4_linear_102_173)"/>
<path d="M26.79 34.5731C27.0821 36.6051 28.9002 38.0251 30.851 37.7447L29.7934 30.3861C27.8426 30.6665 26.498 32.541 26.79 34.5731Z" fill="url(#paint5_linear_102_173)"/>
<path d="M46.6068 28.7738C46.5133 28.1236 46.9647 27.5207 47.6149 27.4272C48.2652 27.3338 48.8681 27.7851 48.9615 28.4354L49.3846 31.3788C49.478 32.0291 49.0266 32.632 48.3764 32.7254C47.7261 32.8189 47.1233 32.3675 47.0298 31.7173L46.6068 28.7738Z" fill="url(#paint6_linear_102_173)"/>
<path fill-rule="evenodd" clip-rule="evenodd" d="M36.4602 27.5697C35.9472 27.6434 35.591 28.119 35.6648 28.6321L36.4131 33.8386C36.4868 34.3516 36.9625 34.7077 37.4755 34.634L45.9198 33.4203C46.4328 33.3466 46.7889 32.8709 46.7152 32.3579L45.9669 27.1514C45.8931 26.6384 45.4175 26.2823 44.9045 26.356L36.4602 27.5697ZM37.4701 28.3258C36.9571 28.3995 36.601 28.8752 36.6747 29.3882L37.1692 32.8286C37.2429 33.3416 37.7186 33.6977 38.2316 33.624L44.9098 32.6642C45.4228 32.5905 45.7789 32.1148 45.7052 31.6018L45.2107 28.1614C45.137 27.6483 44.6614 27.2922 44.1483 27.366L37.4701 28.3258Z" fill="url(#paint7_linear_102_173)"/>
<path fill-rule="evenodd" clip-rule="evenodd" d="M49.7057 25.666C49.1927 25.7397 48.8366 26.2154 48.9103 26.7284L49.6586 31.9349C49.7324 32.4479 50.208 32.804 50.721 32.7303L59.1654 31.5166C59.6784 31.4429 60.0345 30.9673 59.9607 30.4542L59.2124 25.2477C59.1387 24.7347 58.6631 24.3786 58.15 24.4523L49.7057 25.666ZM50.7157 26.4221C50.2027 26.4958 49.8466 26.9715 49.9203 27.4845L50.4148 30.9249C50.4885 31.438 50.9641 31.7941 51.4772 31.7203L58.1554 30.7605C58.6684 30.6868 59.0245 30.2111 58.9508 29.6981L58.4563 26.2577C58.3826 25.7447 57.9069 25.3886 57.3939 25.4623L50.7157 26.4221Z" fill="url(#paint8_linear_102_173)"/>
<path d="M46.2564 29.166L49.1999 28.7429L49.3268 29.626L46.3833 30.049L46.2564 29.166Z" fill="url(#paint9_linear_102_173)"/>
<path d="M58.9538 25.5385L61.6029 25.1578L61.7721 26.3352L59.123 26.7159L58.9538 25.5385Z" fill="url(#paint10_linear_102_173)"/>
<path d="M25.46 33.0249C25.2722 32.8154 25.2778 32.4966 25.4728 32.2938L27.4551 30.2326C27.5758 30.107 27.735 30.0254 27.9075 30.0006L35.9949 28.8383L36.1641 30.0156L28.3316 31.1413C28.1617 31.1658 28.0045 31.2455 27.8843 31.3681L26.2439 33.0423C26.0266 33.2641 25.6671 33.2561 25.46 33.0249Z" fill="url(#paint11_linear_102_173)"/>
<path d="M42.5489 30.3122C42.6424 30.9625 42.191 31.5654 41.5407 31.6588C40.8905 31.7523 40.2876 31.3009 40.1941 30.6507C40.1007 30.0004 40.5521 29.3975 41.2023 29.3041C41.8526 29.2106 42.4555 29.662 42.5489 30.3122Z" fill="url(#paint12_linear_102_173)"/>
<path d="M55.687 28.279C55.7805 28.9292 55.3291 29.5321 54.6789 29.6256C54.0286 29.719 53.4257 29.2676 53.3323 28.6174C53.2388 27.9671 53.6902 27.3643 54.3404 27.2708C54.9907 27.1773 55.5936 27.6287 55.687 28.279Z" fill="url(#paint13_linear_102_173)"/>
<path d="M40.8365 42.3269L55.5537 40.2117C55.8808 42.4876 54.301 44.5977 52.0252 44.9248L45.5496 45.8555C43.2737 46.1826 41.1636 44.6028 40.8365 42.3269Z" fill="url(#paint14_linear_102_173)"/>
</g>
<defs>
<filter id="filter0_dii_102_173" x="0.107111" y="0.933072" width="79.4344" height="80.4032" filterUnits="userSpaceOnUse" color-interpolation-filters="sRGB">
<feFlood flood-opacity="0" result="BackgroundImageFix"/>
<feColorMatrix in="SourceAlpha" type="matrix" values="0 0 0 0 0 0 0 0 0 0 0 0 0 0 0 0 0 0 127 0" result="hardAlpha"/>
<feOffset dy="8.11209"/>
<feGaussianBlur stdDeviation="8.11209"/>
<feColorMatrix type="matrix" values="0 0 0 0 0.2 0 0 0 0 0.2 0 0 0 0 0.2 0 0 0 0.25 0"/>
<feBlend mode="normal" in2="BackgroundImageFix" result="effect1_dropShadow_102_173"/>
<feBlend mode="normal" in="SourceGraphic" in2="effect1_dropShadow_102_173" result="shape"/>
<feColorMatrix in="SourceAlpha" type="matrix" values="0 0 0 0 0 0 0 0 0 0 0 0 0 0 0 0 0 0 127 0" result="hardAlpha"/>
<feOffset dy="2.70403"/>
<feGaussianBlur stdDeviation="1.35202"/>
<feComposite in2="hardAlpha" operator="arithmetic" k2="-1" k3="1"/>
<feColorMatrix type="matrix" values="0 0 0 0 1 0 0 0 0 1 0 0 0 0 1 0 0 0 1 0"/>
<feBlend mode="normal" in2="shape" result="effect2_innerShadow_102_173"/>
<feColorMatrix in="SourceAlpha" type="matrix" values="0 0 0 0 0 0 0 0 0 0 0 0 0 0 0 0 0 0 127 0" result="hardAlpha"/>
<feOffset dy="-2.70403"/>
<feGaussianBlur stdDeviation="1.35202"/>
<feComposite in2="hardAlpha" operator="arithmetic" k2="-1" k3="1"/>
<feColorMatrix type="matrix" values="0 0 0 0 0.8 0 0 0 0 0.8 0 0 0 0 0.8 0 0 0 1 0"/>
<feBlend mode="normal" in2="effect2_innerShadow_102_173" result="effect3_innerShadow_102_173"/>
</filter>
<linearGradient id="paint0_linear_102_173" x1="66.2231" y1="19.3876" x2="20.9195" y2="32.1158" gradientUnits="userSpaceOnUse">
<stop stop-color="#E9BDA5"/>
<stop offset="1" stop-color="#FFDDC1"/>
</linearGradient>
<linearGradient id="paint1_linear_102_173" x1="39.8243" y1="9.04517" x2="39.8243" y2="57" gradientUnits="userSpaceOnUse">
<stop stop-color="#D6BA57"/>
<stop offset="1" stop-color="#FFF873"/>
</linearGradient>
<linearGradient id="paint2_linear_102_173" x1="39.8243" y1="9.04517" x2="39.8243" y2="57" gradientUnits="userSpaceOnUse">
<stop stop-color="#FFFE8E"/>
<stop offset="1" stop-color="#D6BE6A"/>
</linearGradient>
<linearGradient id="paint3_linear_102_173" x1="39.8243" y1="9.04517" x2="39.8243" y2="57" gradientUnits="userSpaceOnUse">
<stop stop-color="#FFFE8E"/>
<stop offset="1" stop-color="#D6BE6A"/>
</linearGradient>
<linearGradient id="paint4_linear_102_173" x1="39.8243" y1="9.04517" x2="39.8243" y2="57" gradientUnits="userSpaceOnUse">
<stop stop-color="#484848"/>
<stop offset="1" stop-color="#2D2D2D"/>
</linearGradient>
<linearGradient id="paint5_linear_102_173" x1="39.8243" y1="9.04517" x2="39.8243" y2="57" gradientUnits="userSpaceOnUse">
<stop stop-color="#D6AE98"/>
<stop offset="1" stop-color="#FFE8CB"/>
</linearGradient>
<linearGradient id="paint6_linear_102_173" x1="39.8243" y1="9.04517" x2="39.8243" y2="57" gradientUnits="userSpaceOnUse">
<stop stop-color="#FFCEA8"/>
<stop offset="1" stop-color="#E3AA8A"/>
</linearGradient>
<linearGradient id="paint7_linear_102_173" x1="57.9999" y1="3.01779" x2="22.4458" y2="34.3841" gradientUnits="userSpaceOnUse">
<stop stop-color="#5E7DCE"/>
<stop offset="1" stop-color="#4E68AC"/>
</linearGradient>
<linearGradient id="paint8_linear_102_173" x1="57.9999" y1="3.01779" x2="22.4458" y2="34.3841" gradientUnits="userSpaceOnUse">
<stop stop-color="#5E7DCE"/>
<stop offset="1" stop-color="#4E68AC"/>
</linearGradient>
<linearGradient id="paint9_linear_102_173" x1="57.9999" y1="3.01779" x2="22.4458" y2="34.3841" gradientUnits="userSpaceOnUse">
<stop stop-color="#5E7DCE"/>
<stop offset="1" stop-color="#4E68AC"/>
</linearGradient>
<linearGradient id="paint10_linear_102_173" x1="57.9999" y1="3.01779" x2="22.4458" y2="34.3841" gradientUnits="userSpaceOnUse">
<stop stop-color="#5E7DCE"/>
<stop offset="1" stop-color="#4E68AC"/>
</linearGradient>
<linearGradient id="paint11_linear_102_173" x1="57.9999" y1="3.01779" x2="22.4458" y2="34.3841" gradientUnits="userSpaceOnUse">
<stop stop-color="#5E7DCE"/>
<stop offset="1" stop-color="#4E68AC"/>
</linearGradient>
<linearGradient id="paint12_linear_102_173" x1="39.8243" y1="9.04517" x2="39.8243" y2="57" gradientUnits="userSpaceOnUse">
<stop stop-color="#575757"/>
<stop offset="1" stop-color="#414141"/>
</linearGradient>
<linearGradient id="paint13_linear_102_173" x1="39.8243" y1="9.04517" x2="39.8243" y2="57" gradientUnits="userSpaceOnUse">
<stop stop-color="#575757"/>
<stop offset="1" stop-color="#414141"/>
</linearGradient>
<linearGradient id="paint14_linear_102_173" x1="48.1951" y1="41.2693" x2="48.7874" y2="45.3901" gradientUnits="userSpaceOnUse">
<stop stop-color="white"/>
<stop offset="1" stop-color="#D6D6D6"/>
</linearGradient>
</defs>
</svg>
